# xmcd
#
# Track frame offsets: 
#        150
#        15922
#        27957
#        37672
#        52355
#        63050
#        77560
#        93160
#        101645
#        113242
#        129660
#        143562
#
# Disc length: 2019 seconds
#
# Revision: 1
# Processed by: cddbd v1.5.2PL0 Copyright (c) Steve Scherf et al.
# Submitted via: ExactAudioCopy v0.99pb5
#
DISCID=8c07e10c
DTITLE=Eumir Deotato - Inútil Paisagem
DYEAR=1964
DGENRE=Jazz
TTITLE0=Insensatez
TTITLE1=Corcovado
TTITLE2=Só Tinha De Ser Com Você
TTITLE3=O Morro Não tem Vez
TTITLE4=Ela É Carioca
TTITLE5=O Amor Em Paz
TTITLE6=Garota de Ipanema
TTITLE7=Inútil Paisagem
TTITLE8=Samba De Uma Nota Só
TTITLE9=Meditação
TTITLE10=Vivo Sonhando
TTITLE11=Samba do Avião
EXTD=YEAR: 1964
EXTT0=
EXTT1=
EXTT2=
EXTT3=
EXTT4=
EXTT5=
EXTT6=
EXTT7=
EXTT8=
EXTT9=
EXTT10=
EXTT11=
PLAYORDER=
